HIERARCHY
ROOT Hips
{
	OFFSET 0.00000 0.00000 0.00000
	CHANNELS 6 Xposition Yposition Zposition Zrotation Yrotation Xrotation 
	JOINT LHipJoint
	{
		OFFSET 0 0 0
		CHANNELS 3 Zrotation Yrotation Xrotation
		JOINT LeftUpLeg
		{
			OFFSET 1.57358 -1.76629 0.73362
			CHANNELS 3 Zrotation Yrotation Xrotation
			JOINT LeftLeg
			{
				OFFSET 2.40600 -6.61045 0.00000
				CHANNELS 3 Zrotation Yrotation Xrotation
				JOINT LeftFoot
				{
					OFFSET 2.66168 -7.31291 0.00000
					CHANNELS 3 Zrotation Yrotation Xrotation
					JOINT LeftToeBase
					{
						OFFSET 0.20870 -0.57341 2.12506
						CHANNELS 3 Zrotation Yrotation Xrotation
						End Site
						{
							OFFSET 0.00000 -0.00000 1.10557
						}
					}
				}
			}
		}
	}
	JOINT RHipJoint
	{
		OFFSET 0 0 0
		CHANNELS 3 Zrotation Yrotation Xrotation
		JOINT RightUpLeg
		{
			OFFSET -1.49299 -1.76629 0.73362
			CHANNELS 3 Zrotation Yrotation Xrotation
			JOINT RightLeg
			{
				OFFSET -2.43663 -6.69460 0.00000
				CHANNELS 3 Zrotation Yrotation Xrotation
				JOINT RightFoot
				{
					OFFSET -2.62959 -7.22474 0.00000
					CHANNELS 3 Zrotation Yrotation Xrotation
					JOINT RightToeBase
					{
						OFFSET -0.25784 -0.70841 2.21862
						CHANNELS 3 Zrotation Yrotation Xrotation
						End Site
						{
							OFFSET -0.00000 -0.00000 1.16452
						}
					}
				}
			}
		}
	}
	JOINT LowerBack
	{
		OFFSET 0 0 0
		CHANNELS 3 Zrotation Yrotation Xrotation
		JOINT Spine
		{
			OFFSET -0.00034 2.12399 -0.25450
			CHANNELS 3 Zrotation Yrotation Xrotation
			JOINT Spine1
			{
				OFFSET 0.05594 2.14379 -0.03318
				CHANNELS 3 Zrotation Yrotation Xrotation
				JOINT Neck
				{
					OFFSET 0 0 0
					CHANNELS 3 Zrotation Yrotation Xrotation
					JOINT Neck1
					{
						OFFSET -0.09835 1.62725 0.24211
						CHANNELS 3 Zrotation Yrotation Xrotation
						JOINT Head
						{
							OFFSET 0.10849 1.66041 -0.22648
							CHANNELS 3 Zrotation Yrotation Xrotation
							End Site
							{
								OFFSET 0.04385 1.68267 -0.10541
							}
						}
					}
				}
				JOINT LeftShoulder
				{
					OFFSET 0 0 0
					CHANNELS 3 Zrotation Yrotation Xrotation
					JOINT LeftArm
					{
						OFFSET 3.29108 0.79398 -0.68179
						CHANNELS 3 Zrotation Yrotation Xrotation
						JOINT LeftForeArm
						{
							OFFSET 5.15310 -0.00000 -0.00000
							CHANNELS 3 Zrotation Yrotation Xrotation
							JOINT LeftHand
							{
								OFFSET 3.75138 -0.00000 -0.00000
								CHANNELS 3 Zrotation Yrotation Xrotation
								JOINT LeftFingerBase
								{
									OFFSET 0 0 0
									CHANNELS 3 Zrotation Yrotation Xrotation
									JOINT LeftHandIndex1
									{
										OFFSET 0.52917 -0.00000 0.00000
										CHANNELS 3 Zrotation Yrotation Xrotation
										End Site
										{
											OFFSET 0.42663 -0.00000 0.00000
										}
									}
								}
								JOINT LThumb
								{
									OFFSET 0 0 0
									CHANNELS 3 Zrotation Yrotation Xrotation
									End Site
									{
										OFFSET 0.43315 -0.00000 0.43315
									}
								}
							}
						}
					}
				}
				JOINT RightShoulder
				{
					OFFSET 0 0 0
					CHANNELS 3 Zrotation Yrotation Xrotation
					JOINT RightArm
					{
						OFFSET -3.07414 1.06285 -0.44338
						CHANNELS 3 Zrotation Yrotation Xrotation
						JOINT RightForeArm
						{
							OFFSET -5.29613 -0.00000 0.00000
							CHANNELS 3 Zrotation Yrotation Xrotation
							JOINT RightHand
							{
								OFFSET -3.76144 -0.00000 -0.00000
								CHANNELS 3 Zrotation Yrotation Xrotation
								JOINT RightFingerBase
								{
									OFFSET 0 0 0
									CHANNELS 3 Zrotation Yrotation Xrotation
									JOINT RightHandIndex1
									{
										OFFSET -0.74732 -0.00000 0.00000
										CHANNELS 3 Zrotation Yrotation Xrotation
										End Site
										{
											OFFSET -0.60251 -0.00000 0.00000
										}
									}
								}
								JOINT RThumb
								{
									OFFSET 0 0 0
									CHANNELS 3 Zrotation Yrotation Xrotation
									End Site
									{
										OFFSET -0.61171 -0.00000 0.61171
									}
								}
							}
						}
					}
				}
			}
		}
	}
}
MOTION
Frames: 9
Frame Time: .0083333
3.316000 17.270900 0.636500 8.846300 -38.734500 -4.193800 0.000000 0.000000 0.000000 -29.174400 -4.534500 -2.706200 2.229000 9.327700 26.825900 1.058400 -3.862100 -18.538800 0.003600 -0.387100 -1.063700 0.000000 0.000000 0.000000 13.853200 8.476500 -34.452800 -6.579600 -14.967400 47.265700 -0.239500 -2.189500 -10.315400 -0.163400 2.604700 -7.180100 -5.125300 -0.694900 8.234000 1.501400 -1.351200 0.004800 4.617800 -0.542500 -4.465500 -9.719500 -2.872400 -15.918000 3.788800 -2.460200 21.919300 2.617800 -1.560700 9.761800 -0.000000 0.000000 0.000000 -88.325300 -4.505000 17.235000 12.973900 -21.248900 -2.443800 -0.000000 -0.000000 11.206800 14.712300 26.798700 6.751500 -7.125000 0.000000 -0.000000 -16.857300 56.749700 -4.951700 -0.000000 0.000000 0.000000 87.962200 -8.524700 2.085400 -15.236400 24.474400 -3.323200 0.000000 0.000000 7.916300 -14.708100 10.821300 -2.821400 7.125000 -0.000000 -0.000000 8.719000 -18.871300 5.494000
3.181900 17.258500 0.823800 10.149900 -38.308900 -4.831000 0.000000 0.000000 0.000000 -30.351700 -3.544000 -1.650100 2.046100 8.961400 25.674600 1.054600 -4.235500 -18.458400 0.014800 -0.786500 -2.161600 0.000000 0.000000 0.000000 12.450400 8.564600 -34.830300 -5.784500 -14.216200 44.110400 -0.168100 -3.391800 -9.760200 -0.239100 3.146900 -8.688000 -6.160600 -0.774900 8.159500 1.167600 -1.567200 0.017000 4.875400 -0.634000 -4.369400 -9.108300 -3.373300 -18.261200 3.851800 -3.112000 22.867100 2.444400 -1.794000 10.582900 0.000000 -0.000000 0.000000 -88.056200 -4.796900 17.780900 13.462100 -21.960600 -2.623600 -0.000000 -0.000000 10.964300 14.641000 27.209300 6.811800 -7.125000 0.000000 -0.000000 -17.177900 57.129300 -5.208800 0.000000 -0.000000 0.000000 88.206900 -8.159500 1.335000 -14.969800 24.104000 -3.213600 0.000000 0.000000 8.818100 -14.321200 11.007400 -2.790600 7.125000 -0.000000 -0.000000 8.987400 -18.705300 5.700800
3.043000 17.252500 1.013400 10.861900 -38.042500 -5.209600 0.000000 0.000000 0.000000 -30.994500 -2.534900 -0.407100 1.863600 8.576000 24.477600 1.060700 -4.395600 -18.495300 0.050800 -1.454400 -4.000000 0.000000 0.000000 0.000000 11.714800 8.431600 -34.966600 -4.979000 -13.360100 40.731700 -0.088500 -3.954400 -8.444400 -0.251100 3.224500 -8.904500 -6.810600 -0.889300 8.197600 1.059600 -1.790400 -0.027900 5.156800 -0.729500 -4.394500 -9.107800 -3.421100 -18.733100 4.019600 -3.173500 22.930300 2.493800 -1.796800 10.702600 -0.000000 -0.000000 0.000000 -87.944600 -4.779600 18.149900 14.003300 -22.739500 -2.829400 -0.000000 -0.000000 10.666500 14.803000 26.961100 6.832300 -7.125000 0.000000 -0.000000 -16.861100 56.924900 -5.025000 -0.000000 -0.000000 0.000000 88.184900 -8.144800 1.328400 -14.811500 23.882800 -3.149200 0.000000 0.000000 9.461000 -13.791200 11.538100 -2.810800 7.125000 -0.000000 -0.000000 9.347700 -18.199000 6.041700
2.901200 17.252500 1.195100 10.689300 -37.986700 -4.923700 0.000000 0.000000 0.000000 -30.886000 -2.030500 0.848300 1.677600 8.159500 23.199700 1.046300 -4.208100 -18.385700 0.065200 -1.647600 -4.532800 0.000000 0.000000 0.000000 11.734500 8.784100 -35.038400 -4.190200 -12.409300 37.195800 -0.003000 -5.026000 -7.271800 -0.162300 2.595900 -7.155800 -6.736300 -0.905100 8.091700 1.103800 -1.795300 -0.055000 5.158900 -0.733500 -4.363300 -10.006600 -2.830700 -15.260300 4.223400 -2.485600 21.053800 2.808100 -1.533100 9.344600 0.000000 0.000000 0.000000 -87.668400 -4.982000 19.019000 14.419500 -23.331300 -2.992300 -0.000000 -0.000000 10.220600 14.964300 26.726700 6.854400 -7.125000 0.000000 -0.000000 -16.556300 56.732700 -4.853000 0.000000 0.000000 0.000000 88.298000 -8.140400 1.187000 -14.720900 23.755900 -3.112600 0.000000 0.000000 9.687600 -13.808200 11.528800 -2.812200 7.125000 -0.000000 -0.000000 9.336100 -18.207500 6.032200
2.757000 17.240900 1.375100 10.591500 -37.977100 -4.666500 0.000000 0.000000 0.000000 -30.770100 -1.475500 1.968800 1.512300 7.766200 22.006300 1.015400 -4.295800 -18.093200 0.061500 -1.600400 -4.402400 0.000000 0.000000 0.000000 11.533100 9.609200 -34.770400 -3.430600 -11.361500 33.509100 0.086500 -6.420700 -6.342300 -0.033000 1.171800 -3.221600 -6.774300 -0.861100 7.989700 1.140300 -1.731300 -0.061600 5.208900 -0.702000 -4.319600 -10.238500 -2.988800 -15.648400 4.572700 -2.683400 21.110500 2.942800 -1.601300 9.459700 0.000000 -0.000000 0.000000 -87.353600 -5.397500 19.989200 14.716000 -23.749000 -3.110700 -0.000000 -0.000000 9.877400 15.003200 27.053800 6.950000 -7.125000 0.000000 -0.000000 -16.710500 57.056000 -5.031700 0.000000 -0.000000 0.000000 88.499100 -7.868600 0.462400 -14.458100 23.385800 -3.007500 0.000000 0.000000 10.438700 -14.124600 11.473100 -2.865400 7.125000 -0.000000 -0.000000 9.116200 -18.244200 5.878900
2.606700 17.232000 1.561700 11.108100 -37.671800 -4.965200 0.000000 0.000000 0.000000 -31.077800 -0.562100 3.128900 1.380600 7.434900 21.010400 0.995600 -5.010300 -17.848400 0.059400 -1.572000 -4.324300 0.000000 0.000000 0.000000 10.766900 10.038000 -34.058400 -2.713900 -10.216800 29.681700 0.163100 -7.616500 -5.615800 -0.001500 -0.249500 0.685500 -7.331400 -0.937500 7.999200 1.058000 -1.890800 -0.091800 5.456000 -0.769000 -4.320900 -10.177400 -2.937900 -15.391900 4.661800 -2.675000 20.937900 2.964000 -1.582000 9.350300 0.000000 -0.000000 0.000000 -87.119600 -5.553200 20.609300 15.091800 -24.273800 -3.263600 -0.000000 -0.000000 9.353200 14.950800 27.003700 6.913000 -7.125000 0.000000 -0.000000 -16.734400 56.996800 -5.015100 0.000000 -0.000000 0.000000 88.601600 -7.880500 0.259900 -14.328500 23.202300 -2.956300 0.000000 0.000000 11.183900 -14.385400 10.948400 -2.788800 7.125000 -0.000000 -0.000000 8.943400 -18.761400 5.661000
2.456900 17.219900 1.753000 11.332200 -37.389100 -5.114700 0.000000 0.000000 0.000000 -31.089600 0.492900 4.302500 1.257300 7.108200 20.036400 0.988700 -5.693300 -17.750700 0.104000 -2.079200 -5.724500 0.000000 0.000000 0.000000 10.336800 10.265700 -33.327300 -2.080500 -9.031900 25.895000 0.218000 -8.546300 -5.529000 -0.026800 -1.056100 2.903100 -7.578100 -1.030900 7.875100 1.007700 -2.027200 0.003500 5.550200 -0.843500 -4.124600 -9.134400 -3.580200 -19.205500 4.342800 -3.430800 23.125000 2.576500 -1.873900 10.889400 0.000000 0.000000 0.000000 -86.916700 -5.784200 21.010000 15.536600 -24.888300 -3.448600 -0.000000 -0.000000 8.798200 15.520900 26.716400 7.116800 -7.125000 0.000000 -0.000000 -15.977100 56.838400 -4.718200 0.000000 0.000000 0.000000 88.714900 -7.810400 0.383800 -14.297300 23.158100 -2.944000 0.000000 0.000000 11.427300 -14.765700 10.580700 -2.770800 7.125000 -0.000000 -0.000000 8.683000 -19.113100 5.423600
2.309700 17.200900 1.938600 11.009200 -37.168300 -4.874700 0.000000 0.000000 0.000000 -30.662300 0.995700 5.612900 1.121300 6.726400 18.907200 0.937400 -6.118700 -17.270000 0.089800 -1.932700 -5.319800 0.000000 0.000000 0.000000 10.416400 10.576000 -32.695600 -1.554700 -7.869400 22.318000 0.279300 -9.569800 -5.830700 -0.001400 -0.243400 0.668600 -7.403300 -1.119800 7.761700 1.075000 -2.113700 0.122900 5.523900 -0.901700 -3.925400 -9.543400 -3.518900 -17.854500 4.456000 -3.358400 21.968100 2.691700 -1.857700 10.216000 -0.000000 -0.000000 0.000000 -86.727400 -6.148200 21.390100 15.892200 -25.374200 -3.599600 -0.000000 -0.000000 8.479100 16.246400 26.535600 7.417400 -7.125000 0.000000 -0.000000 -15.123700 56.814200 -4.449000 -0.000000 -0.000000 0.000000 88.951500 -7.489500 -0.164500 -14.189300 23.004700 -2.901700 0.000000 0.000000 12.027800 -14.624600 10.733800 -2.782300 7.125000 -0.000000 -0.000000 8.779400 -18.965500 5.514400
2.157200 17.182000 2.123000 10.725800 -37.051500 -4.686100 0.000000 0.000000 0.000000 -30.190300 1.603100 6.976800 0.988800 6.329000 17.741900 0.856700 -6.664600 -16.517100 0.054000 -1.499500 -4.124300 0.000000 0.000000 0.000000 10.374200 11.239800 -31.851200 -1.126600 -6.741900 18.952900 0.342100 -10.593400 -6.539400 -0.008400 0.593500 -1.631000 -7.376600 -1.202500 7.755500 1.208000 -2.214900 0.132600 5.658800 -0.953000 -3.892300 -10.187400 -3.236100 -15.664600 4.589500 -3.021100 20.400200 2.887500 -1.734900 9.242300 0.000000 0.000000 0.000000 -86.583400 -6.304900 21.745300 16.239400 -25.844100 -3.749700 -0.000000 -0.000000 8.106700 16.792100 26.185900 7.585200 -7.125000 0.000000 -0.000000 -14.364500 56.585700 -4.139200 0.000000 0.000000 0.000000 88.958200 -7.487300 -0.197400 -14.132700 22.924100 -2.879600 0.000000 0.000000 12.096300 -14.368000 10.697500 -2.722400 7.125000 -0.000000 -0.000000 8.960900 -19.017400 5.620700
